<svg width="52" height="52" viewBox="0 0 52 52" fill="none" xmlns="http://www.w3.org/2000/svg">
<g clip-path="url(#clip0_0_128)">
<path d="M3.24937 3.53806C-0.83696 7.78256 -0.000626206 12.2914 -0.000626206 25.9891C-0.000626206 37.3641 -1.98529 48.7672 8.40171 51.4517C11.6452 52.2859 40.3839 52.2859 43.623 51.4474C47.9477 50.3316 51.4664 46.8237 51.9474 40.7072C52.0145 39.8536 52.0145 12.1397 51.9452 11.2687C51.4339 4.75356 47.4234 0.998731 42.1389 0.23823C40.9277 0.0627304 40.685 0.0107304 34.471 -0.000102922C12.4295 0.0107304 7.59787 -0.97077 3.24937 3.53806Z" fill="url(#paint0_linear_0_128)"/>
<path d="M25.9966 6.80112C18.1294 6.80112 10.6587 6.10129 7.80523 13.4246C6.62657 16.4493 6.79773 20.3775 6.79773 26.0021C6.79773 30.9378 6.63957 35.5766 7.80523 38.5775C10.6522 45.9051 18.1836 45.2031 25.9922 45.2031C33.5257 45.2031 41.2932 45.9875 44.1814 38.5775C45.3622 35.5225 45.1889 31.6528 45.1889 26.0021C45.1889 18.5011 45.6027 13.6586 41.9649 10.023C38.2816 6.33962 33.3004 6.80112 25.9879 6.80112H25.9966ZM24.2762 10.2613C40.6866 10.2353 42.7752 8.41096 41.6226 33.7545C41.2131 42.718 34.3881 41.7343 25.9987 41.7343C10.7021 41.7343 10.2622 41.2966 10.2622 25.9935C10.2622 10.5126 11.4756 10.27 24.2762 10.257V10.2613ZM36.2449 13.4485C34.9731 13.4485 33.9417 14.4798 33.9417 15.7516C33.9417 17.0235 34.9731 18.0548 36.2449 18.0548C37.5167 18.0548 38.5481 17.0235 38.5481 15.7516C38.5481 14.4798 37.5167 13.4485 36.2449 13.4485ZM25.9966 16.1416C20.5517 16.1416 16.1382 20.5573 16.1382 26.0021C16.1382 31.447 20.5517 35.8605 25.9966 35.8605C31.4414 35.8605 35.8527 31.447 35.8527 26.0021C35.8527 20.5573 31.4414 16.1416 25.9966 16.1416ZM25.9966 19.6018C34.4574 19.6018 34.4682 32.4025 25.9966 32.4025C17.5379 32.4025 17.5249 19.6018 25.9966 19.6018Z" fill="white"/>
</g>
<defs>
<linearGradient id="paint0_linear_0_128" x1="3.34908" y1="48.6786" x2="51.6776" y2="6.85085" gradientUnits="userSpaceOnUse">
<stop stop-color="#FFDD55"/>
<stop offset="0.5" stop-color="#FF543E"/>
<stop offset="1" stop-color="#C837AB"/>
</linearGradient>
<clipPath id="clip0_0_128">
<rect width="52" height="52" fill="white"/>
</clipPath>
</defs>
</svg>
