<svg width="20" height="20" viewBox="0 0 20 20" fill="none" xmlns="http://www.w3.org/2000/svg">
<g clip-path="url(#clip0_0_88)">
<path d="M19.8217 14.4726C19.768 14.3825 19.4355 13.66 17.8354 12.1749C16.1602 10.6198 16.3852 10.8723 18.4029 8.18333C19.6317 6.54571 20.123 5.54564 19.9693 5.11811C19.823 4.71058 18.9192 4.81808 18.9192 4.81808L15.914 4.83559C15.914 4.83559 15.6914 4.80558 15.5252 4.90434C15.3639 5.00185 15.2602 5.22686 15.2602 5.22686C15.2602 5.22686 14.7839 6.49446 14.1488 7.57204C12.81 9.84596 12.2737 9.96597 12.0549 9.82471C11.5461 9.49593 11.6736 8.50211 11.6736 7.79706C11.6736 5.59314 12.0074 4.67432 11.0223 4.43681C10.6948 4.35805 10.4548 4.30555 9.61849 4.2968C8.54591 4.28554 7.6371 4.30055 7.12331 4.55181C6.78078 4.71933 6.51701 5.09311 6.67827 5.11436C6.87704 5.14061 7.32707 5.23562 7.56584 5.56064C7.87461 5.97942 7.86336 6.92199 7.86336 6.92199C7.86336 6.92199 8.04088 9.51593 7.44958 9.83846C7.0433 10.0597 6.48701 9.60844 5.29317 7.54454C4.68188 6.48821 4.21934 5.31937 4.21934 5.31937C4.21934 5.31937 4.13059 5.10186 3.97182 4.9856C3.77931 4.84434 3.50929 4.79933 3.50929 4.79933L0.651577 4.81683C0.651577 4.81683 0.222796 4.82934 0.0652839 5.0156C-0.0747265 5.18186 0.0540331 5.52439 0.0540331 5.52439C0.0540331 5.52439 2.2917 10.7585 4.82439 13.3975C7.14831 15.8164 9.78601 15.6576 9.78601 15.6576H10.9811C10.9811 15.6576 11.3424 15.6176 11.5261 15.4189C11.6961 15.2364 11.6899 14.8938 11.6899 14.8938C11.6899 14.8938 11.6661 13.29 12.4112 13.0537C13.145 12.8212 14.0876 14.6038 15.0864 15.2901C15.8415 15.8089 16.4152 15.6951 16.4152 15.6951L19.0867 15.6576C19.0867 15.6576 20.4843 15.5714 19.8217 14.4726Z" fill="#00FF00"/>
</g>
<defs>
<clipPath id="clip0_0_88">
<rect width="20" height="20" fill="white"/>
</clipPath>
</defs>
</svg>
