<svg width="32" height="32" viewBox="0 0 32 32" fill="none" xmlns="http://www.w3.org/2000/svg">
<path fill-rule="evenodd" clip-rule="evenodd" d="M26.6119 5.34412C23.8053 2.53418 20.0727 0.986023 16.0962 0.984375C7.90217 0.984375 1.23346 7.65289 1.23016 15.8491C1.22907 18.4691 1.91351 21.0267 3.21448 23.2811L1.10547 30.9844L8.98616 28.9171C11.1576 30.1016 13.6023 30.7258 16.0901 30.7266H16.0963C24.2894 30.7266 30.9588 24.0575 30.962 15.861C30.9636 11.8887 29.4187 8.15387 26.6119 5.34412ZM16.0962 28.216H16.091C13.874 28.2151 11.6996 27.6193 9.80226 26.4937L9.35127 26.2258L4.67475 27.4526L5.92298 22.8931L5.6291 22.4257C4.39222 20.4584 3.73908 18.1846 3.74018 15.85C3.74274 9.03754 9.28572 3.49512 16.1011 3.49512C19.4014 3.49622 22.5038 4.78308 24.8365 7.11859C27.1693 9.4541 28.4532 12.5585 28.4521 15.86C28.4492 22.673 22.9066 28.216 16.0962 28.216ZM22.8736 18.962C22.5023 18.776 20.676 17.8777 20.3354 17.7535C19.9952 17.6296 19.7473 17.5679 19.4999 17.9396C19.2522 18.3113 18.5404 19.1481 18.3236 19.3958C18.1068 19.6437 17.8904 19.6749 17.5189 19.4888C17.1474 19.303 15.9506 18.9106 14.5317 17.6451C13.4276 16.6602 12.6821 15.4438 12.4653 15.0721C12.2489 14.7001 12.4635 14.5184 12.6283 14.3141C13.0304 13.8148 13.4331 13.2913 13.5568 13.0435C13.6808 12.7956 13.6187 12.5786 13.5257 12.3928C13.4331 12.2069 12.6902 10.3786 12.3808 9.63464C12.079 8.91064 11.773 9.00842 11.5449 8.99707C11.3284 8.98627 11.0807 8.98407 10.833 8.98407C10.5854 8.98407 10.1829 9.0769 9.84236 9.44897C9.50197 9.82086 8.54249 10.7194 8.54249 12.5477C8.54249 14.376 9.87349 16.1422 10.0592 16.3901C10.2448 16.6381 12.6785 20.3899 16.4045 21.9987C17.2907 22.3817 17.9825 22.61 18.5221 22.7812C19.412 23.064 20.2215 23.024 20.8617 22.9285C21.5754 22.8217 23.0591 22.0298 23.3689 21.1622C23.6784 20.2945 23.6784 19.5509 23.5854 19.3958C23.4927 19.2409 23.245 19.1481 22.8736 18.962Z" fill="#222222"/>
</svg>
