<svg width="20" height="20" viewBox="0 0 20 20" fill="none" xmlns="http://www.w3.org/2000/svg">
<path fill-rule="evenodd" clip-rule="evenodd" d="M16.6329 3.34007C14.8788 1.58386 12.5459 0.616264 10.0606 0.615234C4.93935 0.615234 0.771401 4.78306 0.769341 9.90566C0.768654 11.5432 1.19643 13.1417 2.00954 14.5507L0.691406 19.3652L5.61684 18.0732C6.97399 18.8135 8.5019 19.2036 10.0568 19.2041H10.0607C15.1814 19.2041 19.3498 15.0359 19.3517 9.9131C19.3527 7.43042 18.3872 5.09617 16.6329 3.34007ZM10.0606 17.635H10.0574C8.67173 17.6344 7.31274 17.262 6.1269 16.5586L5.84503 16.3911L2.92221 17.1579L3.70235 14.3082L3.51867 14.016C2.74562 12.7865 2.33741 11.3654 2.3381 9.90623C2.3397 5.64846 5.80406 2.18445 10.0637 2.18445C12.1264 2.18513 14.0653 2.98943 15.5233 4.44912C16.9813 5.90881 17.7838 7.84904 17.7831 9.91253C17.7812 14.1706 14.3171 17.635 10.0606 17.635ZM14.2965 11.8513C14.0644 11.735 12.923 11.1736 12.7101 11.096C12.4975 11.0185 12.3425 10.9799 12.1879 11.2122C12.0331 11.4445 11.5883 11.9675 11.4528 12.1224C11.3173 12.2773 11.182 12.2968 10.9498 12.1805C10.7176 12.0644 9.9696 11.8191 9.0828 11.0282C8.39272 10.4126 7.92683 9.6524 7.79133 9.42009C7.65606 9.18754 7.79019 9.07402 7.89318 8.9463C8.1445 8.63422 8.39615 8.30704 8.47352 8.1522C8.55099 7.99724 8.5122 7.86163 8.45406 7.74547C8.39615 7.62932 7.93187 6.48662 7.73846 6.02165C7.54986 5.56915 7.35863 5.63026 7.21604 5.62317C7.08077 5.61642 6.92593 5.61504 6.77109 5.61504C6.61636 5.61504 6.36482 5.67306 6.15196 5.90561C5.93922 6.13804 5.33955 6.6996 5.33955 7.84229C5.33955 8.98498 6.17142 10.0889 6.28746 10.2438C6.4035 10.3988 7.92454 12.7437 10.2533 13.7492C10.8072 13.9886 11.2396 14.1313 11.5768 14.2383C12.133 14.415 12.6389 14.39 13.039 14.3303C13.4851 14.2636 14.4124 13.7686 14.6061 13.2264C14.7995 12.6841 14.7995 12.2193 14.7413 12.1224C14.6834 12.0256 14.5286 11.9675 14.2965 11.8513Z" fill="#00FF00"/>
</svg>
