<svg width="61" height="43" viewBox="0 0 61 43" fill="none" xmlns="http://www.w3.org/2000/svg">
<path d="M59.7324 7.00339C59.041 4.43295 57.0144 2.40671 54.4443 1.71457C49.7491 0.429901 30.968 0.429901 30.968 0.429901C30.968 0.429901 12.1876 0.429901 7.49243 1.66586C4.9718 2.35727 2.89575 4.43332 2.20435 7.00339C0.96875 11.6982 0.96875 21.4347 0.96875 21.4347C0.96875 21.4347 0.96875 31.2202 2.20435 35.8659C2.89648 38.436 4.92236 40.4622 7.4928 41.1544C12.2371 42.4394 30.9687 42.4394 30.9687 42.4394C30.9687 42.4394 49.7491 42.4394 54.4443 41.2035C57.0148 40.5117 59.041 38.4854 59.7331 35.9154C60.9684 31.2202 60.9684 21.4841 60.9684 21.4841C60.9684 21.4841 61.0178 11.6982 59.7324 7.00339ZM24.9885 30.4295V12.4398L40.6059 21.4347L24.9885 30.4295Z" fill="#DD0000"/>
</svg>
