<svg width="32" height="32" viewBox="0 0 32 32" fill="none" xmlns="http://www.w3.org/2000/svg">
<path d="M30.3662 8.50183C30.0205 7.21661 29.0072 6.20349 27.7222 5.85742C25.3746 5.21509 15.984 5.21509 15.984 5.21509C15.984 5.21509 6.59381 5.21509 4.24622 5.83307C2.9859 6.17877 1.94788 7.2168 1.60217 8.50183C0.984375 10.8492 0.984375 15.7175 0.984375 15.7175C0.984375 15.7175 0.984375 20.6102 1.60217 22.9331C1.94824 24.2181 2.96118 25.2313 4.2464 25.5773C6.61853 26.2198 15.9844 26.2198 15.9844 26.2198C15.9844 26.2198 25.3746 26.2198 27.7222 25.6019C29.0074 25.256 30.0205 24.2429 30.3666 22.9578C30.9842 20.6102 30.9842 15.7422 30.9842 15.7422C30.9842 15.7422 31.0089 10.8492 30.3662 8.50183ZM12.9943 20.2149V11.22L20.803 15.7175L12.9943 20.2149Z" fill="#222222"/>
</svg>
