<svg width="20" height="20" viewBox="0 0 20 20" fill="none" xmlns="http://www.w3.org/2000/svg">
<path d="M18.9789 5.31367C18.7628 4.51041 18.1295 3.87721 17.3264 3.66092C15.8591 3.25946 9.99 3.25946 9.99 3.25946C9.99 3.25946 4.12113 3.25946 2.65388 3.6457C1.86619 3.86176 1.21742 4.51053 1.00136 5.31367C0.615234 6.78081 0.615234 9.82345 0.615234 9.82345C0.615234 9.82345 0.615234 12.8814 1.00136 14.3332C1.21765 15.1364 1.85074 15.7696 2.654 15.9859C4.13658 16.3874 9.99023 16.3874 9.99023 16.3874C9.99023 16.3874 15.8591 16.3874 17.3264 16.0012C18.1296 15.785 18.7628 15.1518 18.9791 14.3487C19.3651 12.8814 19.3651 9.8389 19.3651 9.8389C19.3651 9.8389 19.3806 6.78081 18.9789 5.31367ZM8.12141 12.6343V7.01255L13.0019 9.82345L8.12141 12.6343Z" fill="#00FF00"/>
</svg>
